<?xml version="1.0" encoding="UTF-8" standalone="no"?>
<!DOCTYPE svg PUBLIC "-//W3C//DTD SVG 1.1//EN"
 "http://www.w3.org/Graphics/SVG/1.1/DTD/svg11.dtd">
<!-- Generated by graphviz version 2.36.0 (20140111.2315)
 -->
<!-- Title: controllers_diagram Pages: 1 -->
<svg width="750pt" height="725pt"
 viewBox="0.00 0.00 750.00 725.01" xmlns="http://www.w3.org/2000/svg" xmlns:xlink="http://www.w3.org/1999/xlink">
<g id="graph0" class="graph" transform="scale(1 1) rotate(0) translate(4 721.014)">
<title>controllers_diagram</title>
<polygon fill="white" stroke="none" points="-4,4 -4,-721.014 746,-721.014 746,4 -4,4"/>
<!-- _diagram_info -->
<g id="node1" class="node"><title>_diagram_info</title>
<text text-anchor="start" x="536" y="-159.6" font-family="Times,serif" font-size="13.00">Controllers diagram</text>
<text text-anchor="start" x="536" y="-145.6" font-family="Times,serif" font-size="13.00">Date: Aug 13 2014 &#45; 11:36</text>
<text text-anchor="start" x="536" y="-131.6" font-family="Times,serif" font-size="13.00">Migration version: 20140812135244</text>
<text text-anchor="start" x="536" y="-117.6" font-family="Times,serif" font-size="13.00">Generated by RailRoady 1.1.2</text>
<text text-anchor="start" x="536" y="-103.6" font-family="Times,serif" font-size="13.00">http://railroady.prestonlee.com</text>
</g>
<!-- SeriesController -->
<g id="node2" class="node"><title>SeriesController</title>
<path fill="none" stroke="black" d="M13.9517,-275.653C13.9517,-275.653 94.9517,-275.653 94.9517,-275.653 100.952,-275.653 106.952,-281.653 106.952,-287.653 106.952,-287.653 106.952,-476.653 106.952,-476.653 106.952,-482.653 100.952,-488.653 94.9517,-488.653 94.9517,-488.653 13.9517,-488.653 13.9517,-488.653 7.9517,-488.653 1.9517,-482.653 1.9517,-476.653 1.9517,-476.653 1.9517,-287.653 1.9517,-287.653 1.9517,-281.653 7.9517,-275.653 13.9517,-275.653"/>
<text text-anchor="middle" x="54.4517" y="-473.453" font-family="Times,serif" font-size="14.00">SeriesController</text>
<polyline fill="none" stroke="black" points="1.9517,-465.653 106.952,-465.653 "/>
<text text-anchor="start" x="9.9517" y="-450.453" font-family="Times,serif" font-size="14.00">create</text>
<text text-anchor="start" x="9.9517" y="-435.453" font-family="Times,serif" font-size="14.00">destroy</text>
<text text-anchor="start" x="9.9517" y="-420.453" font-family="Times,serif" font-size="14.00">edit</text>
<text text-anchor="start" x="9.9517" y="-405.453" font-family="Times,serif" font-size="14.00">index</text>
<text text-anchor="start" x="9.9517" y="-390.453" font-family="Times,serif" font-size="14.00">new</text>
<text text-anchor="start" x="9.9517" y="-375.453" font-family="Times,serif" font-size="14.00">show</text>
<text text-anchor="start" x="9.9517" y="-360.453" font-family="Times,serif" font-size="14.00">update</text>
<polyline fill="none" stroke="black" points="1.9517,-352.653 106.952,-352.653 "/>
<polyline fill="none" stroke="black" points="1.9517,-328.653 106.952,-328.653 "/>
<text text-anchor="start" x="9.9517" y="-313.453" font-family="Times,serif" font-size="14.00">_layout</text>
<text text-anchor="start" x="9.9517" y="-298.453" font-family="Times,serif" font-size="14.00">series_params</text>
<text text-anchor="start" x="9.9517" y="-283.453" font-family="Times,serif" font-size="14.00">set_series</text>
</g>
<!-- EpisodesController -->
<g id="node3" class="node"><title>EpisodesController</title>
<path fill="none" stroke="black" d="M372.046,-272.104C372.046,-272.104 469.046,-272.104 469.046,-272.104 475.046,-272.104 481.046,-278.104 481.046,-284.104 481.046,-284.104 481.046,-473.104 481.046,-473.104 481.046,-479.104 475.046,-485.104 469.046,-485.104 469.046,-485.104 372.046,-485.104 372.046,-485.104 366.046,-485.104 360.046,-479.104 360.046,-473.104 360.046,-473.104 360.046,-284.104 360.046,-284.104 360.046,-278.104 366.046,-272.104 372.046,-272.104"/>
<text text-anchor="middle" x="420.546" y="-469.904" font-family="Times,serif" font-size="14.00">EpisodesController</text>
<polyline fill="none" stroke="black" points="360.046,-462.104 481.046,-462.104 "/>
<text text-anchor="start" x="368.046" y="-446.904" font-family="Times,serif" font-size="14.00">create</text>
<text text-anchor="start" x="368.046" y="-431.904" font-family="Times,serif" font-size="14.00">destroy</text>
<text text-anchor="start" x="368.046" y="-416.904" font-family="Times,serif" font-size="14.00">edit</text>
<text text-anchor="start" x="368.046" y="-401.904" font-family="Times,serif" font-size="14.00">index</text>
<text text-anchor="start" x="368.046" y="-386.904" font-family="Times,serif" font-size="14.00">new</text>
<text text-anchor="start" x="368.046" y="-371.904" font-family="Times,serif" font-size="14.00">show</text>
<text text-anchor="start" x="368.046" y="-356.904" font-family="Times,serif" font-size="14.00">update</text>
<polyline fill="none" stroke="black" points="360.046,-349.104 481.046,-349.104 "/>
<polyline fill="none" stroke="black" points="360.046,-325.104 481.046,-325.104 "/>
<text text-anchor="start" x="368.046" y="-309.904" font-family="Times,serif" font-size="14.00">_layout</text>
<text text-anchor="start" x="368.046" y="-294.904" font-family="Times,serif" font-size="14.00">episode_params</text>
<text text-anchor="start" x="368.046" y="-279.904" font-family="Times,serif" font-size="14.00">set_episode</text>
</g>
<!-- FranchisesController -->
<g id="node4" class="node"><title>FranchisesController</title>
<path fill="none" stroke="black" d="M182.859,-0.5C182.859,-0.5 288.859,-0.5 288.859,-0.5 294.859,-0.5 300.859,-6.5 300.859,-12.5 300.859,-12.5 300.859,-201.5 300.859,-201.5 300.859,-207.5 294.859,-213.5 288.859,-213.5 288.859,-213.5 182.859,-213.5 182.859,-213.5 176.859,-213.5 170.859,-207.5 170.859,-201.5 170.859,-201.5 170.859,-12.5 170.859,-12.5 170.859,-6.5 176.859,-0.5 182.859,-0.5"/>
<text text-anchor="middle" x="235.859" y="-198.3" font-family="Times,serif" font-size="14.00">FranchisesController</text>
<polyline fill="none" stroke="black" points="170.859,-190.5 300.859,-190.5 "/>
<text text-anchor="start" x="178.859" y="-175.3" font-family="Times,serif" font-size="14.00">create</text>
<text text-anchor="start" x="178.859" y="-160.3" font-family="Times,serif" font-size="14.00">destroy</text>
<text text-anchor="start" x="178.859" y="-145.3" font-family="Times,serif" font-size="14.00">edit</text>
<text text-anchor="start" x="178.859" y="-130.3" font-family="Times,serif" font-size="14.00">index</text>
<text text-anchor="start" x="178.859" y="-115.3" font-family="Times,serif" font-size="14.00">new</text>
<text text-anchor="start" x="178.859" y="-100.3" font-family="Times,serif" font-size="14.00">show</text>
<text text-anchor="start" x="178.859" y="-85.3" font-family="Times,serif" font-size="14.00">update</text>
<polyline fill="none" stroke="black" points="170.859,-77.5 300.859,-77.5 "/>
<polyline fill="none" stroke="black" points="170.859,-53.5 300.859,-53.5 "/>
<text text-anchor="start" x="178.859" y="-38.3" font-family="Times,serif" font-size="14.00">_layout</text>
<text text-anchor="start" x="178.859" y="-23.3" font-family="Times,serif" font-size="14.00">franchise_params</text>
<text text-anchor="start" x="178.859" y="-8.3" font-family="Times,serif" font-size="14.00">set_franchise</text>
</g>
<!-- SeasonsController -->
<g id="node5" class="node"><title>SeasonsController</title>
<path fill="none" stroke="black" d="M56.6965,-503.514C56.6965,-503.514 148.696,-503.514 148.696,-503.514 154.696,-503.514 160.696,-509.514 160.696,-515.514 160.696,-515.514 160.696,-704.514 160.696,-704.514 160.696,-710.514 154.696,-716.514 148.696,-716.514 148.696,-716.514 56.6965,-716.514 56.6965,-716.514 50.6965,-716.514 44.6965,-710.514 44.6965,-704.514 44.6965,-704.514 44.6965,-515.514 44.6965,-515.514 44.6965,-509.514 50.6965,-503.514 56.6965,-503.514"/>
<text text-anchor="middle" x="102.696" y="-701.314" font-family="Times,serif" font-size="14.00">SeasonsController</text>
<polyline fill="none" stroke="black" points="44.6965,-693.514 160.696,-693.514 "/>
<text text-anchor="start" x="52.6965" y="-678.314" font-family="Times,serif" font-size="14.00">create</text>
<text text-anchor="start" x="52.6965" y="-663.314" font-family="Times,serif" font-size="14.00">destroy</text>
<text text-anchor="start" x="52.6965" y="-648.314" font-family="Times,serif" font-size="14.00">edit</text>
<text text-anchor="start" x="52.6965" y="-633.314" font-family="Times,serif" font-size="14.00">index</text>
<text text-anchor="start" x="52.6965" y="-618.314" font-family="Times,serif" font-size="14.00">new</text>
<text text-anchor="start" x="52.6965" y="-603.314" font-family="Times,serif" font-size="14.00">show</text>
<text text-anchor="start" x="52.6965" y="-588.314" font-family="Times,serif" font-size="14.00">update</text>
<polyline fill="none" stroke="black" points="44.6965,-580.514 160.696,-580.514 "/>
<polyline fill="none" stroke="black" points="44.6965,-556.514 160.696,-556.514 "/>
<text text-anchor="start" x="52.6965" y="-541.314" font-family="Times,serif" font-size="14.00">_layout</text>
<text text-anchor="start" x="52.6965" y="-526.314" font-family="Times,serif" font-size="14.00">season_params</text>
<text text-anchor="start" x="52.6965" y="-511.314" font-family="Times,serif" font-size="14.00">set_season</text>
</g>
<!-- PersonController -->
<g id="node6" class="node"><title>PersonController</title>
<path fill="none" stroke="black" d="M331.211,-502.205C331.211,-502.205 416.211,-502.205 416.211,-502.205 422.211,-502.205 428.211,-508.205 428.211,-514.205 428.211,-514.205 428.211,-703.205 428.211,-703.205 428.211,-709.205 422.211,-715.205 416.211,-715.205 416.211,-715.205 331.211,-715.205 331.211,-715.205 325.211,-715.205 319.211,-709.205 319.211,-703.205 319.211,-703.205 319.211,-514.205 319.211,-514.205 319.211,-508.205 325.211,-502.205 331.211,-502.205"/>
<text text-anchor="middle" x="373.711" y="-700.005" font-family="Times,serif" font-size="14.00">PersonController</text>
<polyline fill="none" stroke="black" points="319.211,-692.205 428.211,-692.205 "/>
<text text-anchor="start" x="327.211" y="-677.005" font-family="Times,serif" font-size="14.00">create</text>
<text text-anchor="start" x="327.211" y="-662.005" font-family="Times,serif" font-size="14.00">destroy</text>
<text text-anchor="start" x="327.211" y="-647.005" font-family="Times,serif" font-size="14.00">edit</text>
<text text-anchor="start" x="327.211" y="-632.005" font-family="Times,serif" font-size="14.00">index</text>
<text text-anchor="start" x="327.211" y="-617.005" font-family="Times,serif" font-size="14.00">new</text>
<text text-anchor="start" x="327.211" y="-602.005" font-family="Times,serif" font-size="14.00">show</text>
<text text-anchor="start" x="327.211" y="-587.005" font-family="Times,serif" font-size="14.00">update</text>
<polyline fill="none" stroke="black" points="319.211,-579.205 428.211,-579.205 "/>
<polyline fill="none" stroke="black" points="319.211,-555.205 428.211,-555.205 "/>
<text text-anchor="start" x="327.211" y="-540.005" font-family="Times,serif" font-size="14.00">_layout</text>
<text text-anchor="start" x="327.211" y="-525.005" font-family="Times,serif" font-size="14.00">person_params</text>
<text text-anchor="start" x="327.211" y="-510.005" font-family="Times,serif" font-size="14.00">set_person</text>
</g>
<!-- ApplicationController -->
<g id="node7" class="node"><title>ApplicationController</title>
<path fill="none" stroke="black" d="M181.193,-313.557C181.193,-313.557 293.193,-313.557 293.193,-313.557 299.193,-313.557 305.193,-319.557 305.193,-325.557 305.193,-325.557 305.193,-395.557 305.193,-395.557 305.193,-401.557 299.193,-407.557 293.193,-407.557 293.193,-407.557 181.193,-407.557 181.193,-407.557 175.193,-407.557 169.193,-401.557 169.193,-395.557 169.193,-395.557 169.193,-325.557 169.193,-325.557 169.193,-319.557 175.193,-313.557 181.193,-313.557"/>
<text text-anchor="middle" x="237.193" y="-392.357" font-family="Times,serif" font-size="14.00">ApplicationController</text>
<polyline fill="none" stroke="black" points="169.193,-384.557 305.193,-384.557 "/>
<polyline fill="none" stroke="black" points="169.193,-360.557 305.193,-360.557 "/>
<polyline fill="none" stroke="black" points="169.193,-336.557 305.193,-336.557 "/>
<text text-anchor="start" x="177.193" y="-321.357" font-family="Times,serif" font-size="14.00">_layout</text>
</g>
<!-- ApplicationController&#45;&gt;SeriesController -->
<g id="edge1" class="edge"><title>ApplicationController&#45;&gt;SeriesController</title>
<path fill="none" stroke="black" d="M169.147,-368.598C148.649,-371.021 126.472,-373.642 107.132,-375.927"/>
</g>
<!-- ApplicationController&#45;&gt;EpisodesController -->
<g id="edge2" class="edge"><title>ApplicationController&#45;&gt;EpisodesController</title>
<path fill="none" stroke="black" d="M305.206,-367.251C323.143,-369.017 342.378,-370.91 359.898,-372.634"/>
</g>
<!-- ApplicationController&#45;&gt;FranchisesController -->
<g id="edge3" class="edge"><title>ApplicationController&#45;&gt;FranchisesController</title>
<path fill="none" stroke="black" d="M236.946,-313.459C236.797,-285.317 236.603,-248.366 236.42,-213.513"/>
</g>
<!-- ApplicationController&#45;&gt;SeasonsController -->
<g id="edge4" class="edge"><title>ApplicationController&#45;&gt;SeasonsController</title>
<path fill="none" stroke="black" d="M211.737,-407.771C197.153,-434.82 178.225,-469.928 160.242,-503.282"/>
</g>
<!-- ApplicationController&#45;&gt;PersonController -->
<g id="edge5" class="edge"><title>ApplicationController&#45;&gt;PersonController</title>
<path fill="none" stroke="black" d="M263.193,-407.816C279.013,-436.573 299.827,-474.406 319.122,-509.477"/>
</g>
<!-- StudiosController -->
<g id="node8" class="node"><title>StudiosController</title>
<path fill="none" stroke="black" d="M12,-24.0825C12,-24.0825 101,-24.0825 101,-24.0825 107,-24.0825 113,-30.0825 113,-36.0825 113,-36.0825 113,-225.082 113,-225.082 113,-231.082 107,-237.082 101,-237.082 101,-237.082 12,-237.082 12,-237.082 6,-237.082 -2.84217e-14,-231.082 -2.84217e-14,-225.082 -2.84217e-14,-225.082 -2.84217e-14,-36.0825 -2.84217e-14,-36.0825 -2.84217e-14,-30.0825 6,-24.0825 12,-24.0825"/>
<text text-anchor="middle" x="56.5" y="-221.882" font-family="Times,serif" font-size="14.00">StudiosController</text>
<polyline fill="none" stroke="black" points="-2.84217e-14,-214.082 113,-214.082 "/>
<text text-anchor="start" x="8" y="-198.882" font-family="Times,serif" font-size="14.00">create</text>
<text text-anchor="start" x="8" y="-183.882" font-family="Times,serif" font-size="14.00">destroy</text>
<text text-anchor="start" x="8" y="-168.882" font-family="Times,serif" font-size="14.00">edit</text>
<text text-anchor="start" x="8" y="-153.882" font-family="Times,serif" font-size="14.00">index</text>
<text text-anchor="start" x="8" y="-138.882" font-family="Times,serif" font-size="14.00">new</text>
<text text-anchor="start" x="8" y="-123.882" font-family="Times,serif" font-size="14.00">show</text>
<text text-anchor="start" x="8" y="-108.882" font-family="Times,serif" font-size="14.00">update</text>
<polyline fill="none" stroke="black" points="-2.84217e-14,-101.082 113,-101.082 "/>
<polyline fill="none" stroke="black" points="-2.84217e-14,-77.0825 113,-77.0825 "/>
<text text-anchor="start" x="8" y="-61.8825" font-family="Times,serif" font-size="14.00">_layout</text>
<text text-anchor="start" x="8" y="-46.8825" font-family="Times,serif" font-size="14.00">set_studio</text>
<text text-anchor="start" x="8" y="-31.8825" font-family="Times,serif" font-size="14.00">studio_params</text>
</g>
<!-- ApplicationController&#45;&gt;StudiosController -->
<g id="edge6" class="edge"><title>ApplicationController&#45;&gt;StudiosController</title>
<path fill="none" stroke="black" d="M200.191,-313.463C175.101,-281.53 141.46,-238.714 113.037,-202.538"/>
</g>
<!-- FilmsController -->
<g id="node9" class="node"><title>FilmsController</title>
<path fill="none" stroke="black" d="M377.192,-21.969C377.192,-21.969 457.192,-21.969 457.192,-21.969 463.192,-21.969 469.192,-27.969 469.192,-33.969 469.192,-33.969 469.192,-222.969 469.192,-222.969 469.192,-228.969 463.192,-234.969 457.192,-234.969 457.192,-234.969 377.192,-234.969 377.192,-234.969 371.192,-234.969 365.192,-228.969 365.192,-222.969 365.192,-222.969 365.192,-33.969 365.192,-33.969 365.192,-27.969 371.192,-21.969 377.192,-21.969"/>
<text text-anchor="middle" x="417.192" y="-219.769" font-family="Times,serif" font-size="14.00">FilmsController</text>
<polyline fill="none" stroke="black" points="365.192,-211.969 469.192,-211.969 "/>
<text text-anchor="start" x="373.192" y="-196.769" font-family="Times,serif" font-size="14.00">create</text>
<text text-anchor="start" x="373.192" y="-181.769" font-family="Times,serif" font-size="14.00">destroy</text>
<text text-anchor="start" x="373.192" y="-166.769" font-family="Times,serif" font-size="14.00">edit</text>
<text text-anchor="start" x="373.192" y="-151.769" font-family="Times,serif" font-size="14.00">index</text>
<text text-anchor="start" x="373.192" y="-136.769" font-family="Times,serif" font-size="14.00">new</text>
<text text-anchor="start" x="373.192" y="-121.769" font-family="Times,serif" font-size="14.00">show</text>
<text text-anchor="start" x="373.192" y="-106.769" font-family="Times,serif" font-size="14.00">update</text>
<polyline fill="none" stroke="black" points="365.192,-98.969 469.192,-98.969 "/>
<polyline fill="none" stroke="black" points="365.192,-74.969 469.192,-74.969 "/>
<text text-anchor="start" x="373.192" y="-59.769" font-family="Times,serif" font-size="14.00">_layout</text>
<text text-anchor="start" x="373.192" y="-44.769" font-family="Times,serif" font-size="14.00">film_params</text>
<text text-anchor="start" x="373.192" y="-29.769" font-family="Times,serif" font-size="14.00">set_film</text>
</g>
<!-- ApplicationController&#45;&gt;FilmsController -->
<g id="edge7" class="edge"><title>ApplicationController&#45;&gt;FilmsController</title>
<path fill="none" stroke="black" d="M273.836,-313.311C300.047,-279.514 335.709,-233.532 364.906,-195.885"/>
</g>
</g>
</svg>
