<?xml version="1.0" encoding="UTF-8" standalone="no"?>
<!DOCTYPE svg PUBLIC "-//W3C//DTD SVG 1.1//EN"
 "http://www.w3.org/Graphics/SVG/1.1/DTD/svg11.dtd">
<!-- Generated by graphviz version 2.36.0 (20140111.2315)
 -->
<!-- Title: models_diagram Pages: 1 -->
<svg width="464pt" height="796pt"
 viewBox="0.00 0.00 464.00 796.00" xmlns="http://www.w3.org/2000/svg" xmlns:xlink="http://www.w3.org/1999/xlink">
<g id="graph0" class="graph" transform="scale(1 1) rotate(0) translate(4 792)">
<title>models_diagram</title>
<polygon fill="white" stroke="none" points="-4,4 -4,-792 460,-792 460,4 -4,4"/>
<!-- _diagram_info -->
<g id="node1" class="node"><title>_diagram_info</title>
<text text-anchor="start" x="8" y="-773.6" font-family="Times,serif" font-size="13.00">Models diagram</text>
<text text-anchor="start" x="8" y="-759.6" font-family="Times,serif" font-size="13.00">Date: Aug 13 2014 &#45; 11:35</text>
<text text-anchor="start" x="8" y="-745.6" font-family="Times,serif" font-size="13.00">Migration version: 20140812135244</text>
<text text-anchor="start" x="8" y="-731.6" font-family="Times,serif" font-size="13.00">Generated by RailRoady 1.1.2</text>
<text text-anchor="start" x="8" y="-717.6" font-family="Times,serif" font-size="13.00">http://railroady.prestonlee.com</text>
</g>
<!-- Episode -->
<g id="node2" class="node"><title>Episode</title>
<path fill="none" stroke="black" d="M333.5,-1C333.5,-1 444.5,-1 444.5,-1 450.5,-1 456.5,-7 456.5,-13 456.5,-13 456.5,-125 456.5,-125 456.5,-131 450.5,-137 444.5,-137 444.5,-137 333.5,-137 333.5,-137 327.5,-137 321.5,-131 321.5,-125 321.5,-125 321.5,-13 321.5,-13 321.5,-7 327.5,-1 333.5,-1"/>
<text text-anchor="middle" x="389" y="-121.8" font-family="Times,serif" font-size="14.00">Episode</text>
<polyline fill="none" stroke="black" points="321.5,-114 456.5,-114 "/>
<text text-anchor="start" x="329.5" y="-98.8" font-family="Times,serif" font-size="14.00">id :integer</text>
<text text-anchor="start" x="329.5" y="-83.8" font-family="Times,serif" font-size="14.00">season_id :integer</text>
<text text-anchor="start" x="329.5" y="-68.8" font-family="Times,serif" font-size="14.00">title :string</text>
<text text-anchor="start" x="329.5" y="-53.8" font-family="Times,serif" font-size="14.00">prod_number :integer</text>
<text text-anchor="start" x="329.5" y="-38.8" font-family="Times,serif" font-size="14.00">description :text</text>
<text text-anchor="start" x="329.5" y="-23.8" font-family="Times,serif" font-size="14.00">created_at :datetime</text>
<text text-anchor="start" x="329.5" y="-8.8" font-family="Times,serif" font-size="14.00">updated_at :datetime</text>
</g>
<!-- Franchise -->
<g id="node3" class="node"><title>Franchise</title>
<path fill="none" stroke="black" d="M63.5,-559.5C63.5,-559.5 170.5,-559.5 170.5,-559.5 176.5,-559.5 182.5,-565.5 182.5,-571.5 182.5,-571.5 182.5,-638.5 182.5,-638.5 182.5,-644.5 176.5,-650.5 170.5,-650.5 170.5,-650.5 63.5,-650.5 63.5,-650.5 57.5,-650.5 51.5,-644.5 51.5,-638.5 51.5,-638.5 51.5,-571.5 51.5,-571.5 51.5,-565.5 57.5,-559.5 63.5,-559.5"/>
<text text-anchor="middle" x="117" y="-635.3" font-family="Times,serif" font-size="14.00">Franchise</text>
<polyline fill="none" stroke="black" points="51.5,-627.5 182.5,-627.5 "/>
<text text-anchor="start" x="59.5" y="-612.3" font-family="Times,serif" font-size="14.00">id :integer</text>
<text text-anchor="start" x="59.5" y="-597.3" font-family="Times,serif" font-size="14.00">name :string</text>
<text text-anchor="start" x="59.5" y="-582.3" font-family="Times,serif" font-size="14.00">created_at :datetime</text>
<text text-anchor="start" x="59.5" y="-567.3" font-family="Times,serif" font-size="14.00">updated_at :datetime</text>
</g>
<!-- Movie -->
<g id="node4" class="node"><title>Movie</title>
<path fill="none" stroke="black" d="M216.5,-348.5C216.5,-348.5 341.5,-348.5 341.5,-348.5 347.5,-348.5 353.5,-354.5 353.5,-360.5 353.5,-360.5 353.5,-487.5 353.5,-487.5 353.5,-493.5 347.5,-499.5 341.5,-499.5 341.5,-499.5 216.5,-499.5 216.5,-499.5 210.5,-499.5 204.5,-493.5 204.5,-487.5 204.5,-487.5 204.5,-360.5 204.5,-360.5 204.5,-354.5 210.5,-348.5 216.5,-348.5"/>
<text text-anchor="middle" x="279" y="-484.3" font-family="Times,serif" font-size="14.00">Movie</text>
<polyline fill="none" stroke="black" points="204.5,-476.5 353.5,-476.5 "/>
<text text-anchor="start" x="212.5" y="-461.3" font-family="Times,serif" font-size="14.00">id :integer</text>
<text text-anchor="start" x="212.5" y="-446.3" font-family="Times,serif" font-size="14.00">title :string</text>
<text text-anchor="start" x="212.5" y="-431.3" font-family="Times,serif" font-size="14.00">description :text</text>
<text text-anchor="start" x="212.5" y="-416.3" font-family="Times,serif" font-size="14.00">release_date :datetime</text>
<text text-anchor="start" x="212.5" y="-401.3" font-family="Times,serif" font-size="14.00">studio_id :integer</text>
<text text-anchor="start" x="212.5" y="-386.3" font-family="Times,serif" font-size="14.00">franchise_id :integer</text>
<text text-anchor="start" x="212.5" y="-371.3" font-family="Times,serif" font-size="14.00">production_cost :integer</text>
<text text-anchor="start" x="212.5" y="-356.3" font-family="Times,serif" font-size="14.00">profit :integer</text>
</g>
<!-- Franchise&#45;&gt;Movie -->
<g id="edge2" class="edge"><title>Franchise&#45;&gt;Movie</title>
<path fill="none" stroke="#dfb5b6" d="M162.913,-553.269C175.853,-538.971 190.274,-523.037 204.43,-507.395"/>
<ellipse fill="none" stroke="#dfb5b6" cx="160.146" cy="-556.327" rx="4.00002" ry="4.00002"/>
<polygon fill="#dfb5b6" stroke="#dfb5b6" points="204.641,-507.162 214.688,-502.767 207.996,-503.455 211.351,-499.747 211.351,-499.747 211.351,-499.747 207.996,-503.455 208.015,-496.728 204.641,-507.162 204.641,-507.162"/>
</g>
<!-- Tvseries -->
<g id="node7" class="node"><title>Tvseries</title>
<path fill="none" stroke="black" d="M60,-356C60,-356 174,-356 174,-356 180,-356 186,-362 186,-368 186,-368 186,-480 186,-480 186,-486 180,-492 174,-492 174,-492 60,-492 60,-492 54,-492 48,-486 48,-480 48,-480 48,-368 48,-368 48,-362 54,-356 60,-356"/>
<text text-anchor="middle" x="117" y="-476.8" font-family="Times,serif" font-size="14.00">Tvseries</text>
<polyline fill="none" stroke="black" points="48,-469 186,-469 "/>
<text text-anchor="start" x="56" y="-453.8" font-family="Times,serif" font-size="14.00">id :integer</text>
<text text-anchor="start" x="56" y="-438.8" font-family="Times,serif" font-size="14.00">name :string</text>
<text text-anchor="start" x="56" y="-423.8" font-family="Times,serif" font-size="14.00">description :text</text>
<text text-anchor="start" x="56" y="-408.8" font-family="Times,serif" font-size="14.00">release_date :datetime</text>
<text text-anchor="start" x="56" y="-393.8" font-family="Times,serif" font-size="14.00">status :string</text>
<text text-anchor="start" x="56" y="-378.8" font-family="Times,serif" font-size="14.00">franchise_id :integer</text>
<text text-anchor="start" x="56" y="-363.8" font-family="Times,serif" font-size="14.00">studio_id :integer</text>
</g>
<!-- Franchise&#45;&gt;Tvseries -->
<g id="edge3" class="edge"><title>Franchise&#45;&gt;Tvseries</title>
<path fill="none" stroke="#11440e" d="M117,-551.001C117,-535.714 117,-518.711 117,-502.27"/>
<ellipse fill="none" stroke="#11440e" cx="117" cy="-555.292" rx="4" ry="4"/>
<polygon fill="#11440e" stroke="#11440e" points="117,-502.126 121.5,-492.126 117,-497.126 117,-492.126 117,-492.126 117,-492.126 117,-497.126 112.5,-492.126 117,-502.126 117,-502.126"/>
</g>
<!-- Studio -->
<g id="node5" class="node"><title>Studio</title>
<path fill="none" stroke="black" d="M212.5,-537C212.5,-537 319.5,-537 319.5,-537 325.5,-537 331.5,-543 331.5,-549 331.5,-549 331.5,-661 331.5,-661 331.5,-667 325.5,-673 319.5,-673 319.5,-673 212.5,-673 212.5,-673 206.5,-673 200.5,-667 200.5,-661 200.5,-661 200.5,-549 200.5,-549 200.5,-543 206.5,-537 212.5,-537"/>
<text text-anchor="middle" x="266" y="-657.8" font-family="Times,serif" font-size="14.00">Studio</text>
<polyline fill="none" stroke="black" points="200.5,-650 331.5,-650 "/>
<text text-anchor="start" x="208.5" y="-634.8" font-family="Times,serif" font-size="14.00">id :integer</text>
<text text-anchor="start" x="208.5" y="-619.8" font-family="Times,serif" font-size="14.00">name :string</text>
<text text-anchor="start" x="208.5" y="-604.8" font-family="Times,serif" font-size="14.00">description :text</text>
<text text-anchor="start" x="208.5" y="-589.8" font-family="Times,serif" font-size="14.00">started_at :datetime</text>
<text text-anchor="start" x="208.5" y="-574.8" font-family="Times,serif" font-size="14.00">profit :integer</text>
<text text-anchor="start" x="208.5" y="-559.8" font-family="Times,serif" font-size="14.00">created_at :datetime</text>
<text text-anchor="start" x="208.5" y="-544.8" font-family="Times,serif" font-size="14.00">updated_at :datetime</text>
</g>
<!-- Studio&#45;&gt;Movie -->
<g id="edge6" class="edge"><title>Studio&#45;&gt;Movie</title>
<path fill="none" stroke="#a99b2a" d="M271.46,-528.822C271.918,-522.51 272.384,-516.1 272.847,-509.723"/>
<ellipse fill="none" stroke="#a99b2a" cx="271.167" cy="-532.848" rx="4" ry="4"/>
<polygon fill="#a99b2a" stroke="#a99b2a" points="272.847,-509.721 278.06,-500.073 273.209,-504.734 273.571,-499.747 273.571,-499.747 273.571,-499.747 273.209,-504.734 269.083,-499.421 272.847,-509.721 272.847,-509.721"/>
</g>
<!-- Studio&#45;&gt;Tvseries -->
<g id="edge7" class="edge"><title>Studio&#45;&gt;Tvseries</title>
<path fill="none" stroke="#db0df7" d="M204.935,-530.64C196.506,-520.514 187.839,-510.102 179.386,-499.947"/>
<ellipse fill="none" stroke="#db0df7" cx="207.535" cy="-533.763" rx="4.00002" ry="4.00002"/>
<polygon fill="#db0df7" stroke="#db0df7" points="179.369,-499.927 176.43,-489.362 176.17,-496.084 172.971,-492.241 172.971,-492.241 172.971,-492.241 176.17,-496.084 169.513,-495.12 179.369,-499.927 179.369,-499.927"/>
</g>
<!-- Season -->
<g id="node6" class="node"><title>Season</title>
<path fill="none" stroke="black" d="M288.5,-175C288.5,-175 395.5,-175 395.5,-175 401.5,-175 407.5,-181 407.5,-187 407.5,-187 407.5,-299 407.5,-299 407.5,-305 401.5,-311 395.5,-311 395.5,-311 288.5,-311 288.5,-311 282.5,-311 276.5,-305 276.5,-299 276.5,-299 276.5,-187 276.5,-187 276.5,-181 282.5,-175 288.5,-175"/>
<text text-anchor="middle" x="342" y="-295.8" font-family="Times,serif" font-size="14.00">Season</text>
<polyline fill="none" stroke="black" points="276.5,-288 407.5,-288 "/>
<text text-anchor="start" x="284.5" y="-272.8" font-family="Times,serif" font-size="14.00">id :integer</text>
<text text-anchor="start" x="284.5" y="-257.8" font-family="Times,serif" font-size="14.00">tvseries_id :integer</text>
<text text-anchor="start" x="284.5" y="-242.8" font-family="Times,serif" font-size="14.00">number :integer</text>
<text text-anchor="start" x="284.5" y="-227.8" font-family="Times,serif" font-size="14.00">name :string</text>
<text text-anchor="start" x="284.5" y="-212.8" font-family="Times,serif" font-size="14.00">description :text</text>
<text text-anchor="start" x="284.5" y="-197.8" font-family="Times,serif" font-size="14.00">created_at :datetime</text>
<text text-anchor="start" x="284.5" y="-182.8" font-family="Times,serif" font-size="14.00">updated_at :datetime</text>
</g>
<!-- Season&#45;&gt;Episode -->
<g id="edge9" class="edge"><title>Season&#45;&gt;Episode</title>
<path fill="none" stroke="#1e698e" d="M362.589,-166.652C364.401,-160.022 366.236,-153.306 368.051,-146.665"/>
<ellipse fill="none" stroke="#1e698e" cx="361.495" cy="-170.656" rx="4.00001" ry="4.00001"/>
<polygon fill="#1e698e" stroke="#1e698e" points="368.054,-146.655 375.03,-138.195 369.372,-141.832 370.69,-137.009 370.69,-137.009 370.69,-137.009 369.372,-141.832 366.349,-135.822 368.054,-146.655 368.054,-146.655"/>
</g>
<!-- Tvseries&#45;&gt;Season -->
<g id="edge11" class="edge"><title>Tvseries&#45;&gt;Season</title>
<path fill="none" stroke="#0ac7e8" d="M192.679,-350.762C193.789,-349.831 194.896,-348.909 196,-348 218.666,-329.324 244.462,-310.284 268,-293.686"/>
<ellipse fill="none" stroke="#0ac7e8" cx="189.346" cy="-353.603" rx="4.00002" ry="4.00002"/>
<polygon fill="#0ac7e8" stroke="#0ac7e8" points="268.034,-293.662 278.805,-291.607 272.128,-290.792 276.222,-287.922 276.222,-287.922 276.222,-287.922 272.128,-290.792 273.639,-284.237 268.034,-293.662 268.034,-293.662"/>
</g>
<!-- ActiveRecord::Base -->
<g id="node8" class="node"><title>ActiveRecord::Base</title>
<ellipse fill="none" stroke="black" cx="313" cy="-749" rx="81.3646" ry="18"/>
<text text-anchor="middle" x="313" y="-745.3" font-family="Times,serif" font-size="14.00">ActiveRecord::Base</text>
</g>
<!-- ActiveRecord::Base&#45;&gt;Episode -->
<g id="edge1" class="edge"><title>ActiveRecord::Base&#45;&gt;Episode</title>
<path fill="none" stroke="black" d="M334.451,-731.358C350.243,-717.775 370.689,-697.103 381,-674 471.79,-470.575 444.216,-394.972 416,-174 414.464,-161.972 411.968,-149.348 409.097,-137.205"/>
</g>
<!-- ActiveRecord::Base&#45;&gt;Franchise -->
<g id="edge4" class="edge"><title>ActiveRecord::Base&#45;&gt;Franchise</title>
<path fill="none" stroke="black" d="M283.359,-732.203C257.981,-718.174 220.909,-696.465 191,-674 181.513,-666.875 171.845,-658.737 162.762,-650.627"/>
</g>
<!-- ActiveRecord::Base&#45;&gt;Movie -->
<g id="edge5" class="edge"><title>ActiveRecord::Base&#45;&gt;Movie</title>
<path fill="none" stroke="black" d="M321.218,-730.835C327.774,-716.134 336.43,-694.2 340,-674 350.674,-613.603 355.248,-595.408 340,-536 336.857,-523.753 332.048,-511.408 326.48,-499.627"/>
</g>
<!-- ActiveRecord::Base&#45;&gt;Studio -->
<g id="edge8" class="edge"><title>ActiveRecord::Base&#45;&gt;Studio</title>
<path fill="none" stroke="black" d="M307.331,-730.871C302.521,-716.34 295.294,-694.504 288.221,-673.136"/>
</g>
<!-- ActiveRecord::Base&#45;&gt;Season -->
<g id="edge10" class="edge"><title>ActiveRecord::Base&#45;&gt;Season</title>
<path fill="none" stroke="black" d="M326.933,-731.005C337.686,-716.754 351.75,-695.358 358,-674 394.296,-549.963 374.229,-397.197 357.401,-311.177"/>
</g>
<!-- ActiveRecord::Base&#45;&gt;Tvseries -->
<g id="edge12" class="edge"><title>ActiveRecord::Base&#45;&gt;Tvseries</title>
<path fill="none" stroke="black" d="M280.3,-732.492C263.225,-724.873 241.812,-716.052 222,-710 143.975,-686.164 93.7235,-737.093 42,-674 -0.576798,-622.065 31.6471,-546.415 66.1202,-492.145"/>
</g>
</g>
</svg>
