<?xml version="1.0" encoding="UTF-8" standalone="no"?>
<!DOCTYPE svg PUBLIC "-//W3C//DTD SVG 1.1//EN"
 "http://www.w3.org/Graphics/SVG/1.1/DTD/svg11.dtd">
<!-- Generated by graphviz version 2.36.0 (20140111.2315)
 -->
<!-- Title: models_diagram Pages: 1 -->
<svg width="434pt" height="374pt"
 viewBox="0.00 0.00 434.00 374.00" xmlns="http://www.w3.org/2000/svg" xmlns:xlink="http://www.w3.org/1999/xlink">
<g id="graph0" class="graph" transform="scale(1 1) rotate(0) translate(4 370)">
<title>models_diagram</title>
<polygon fill="white" stroke="none" points="-4,4 -4,-370 430,-370 430,4 -4,4"/>
<!-- _diagram_info -->
<g id="node1" class="node"><title>_diagram_info</title>
<text text-anchor="start" x="8" y="-351.6" font-family="Times,serif" font-size="13.00">Models diagram</text>
<text text-anchor="start" x="8" y="-337.6" font-family="Times,serif" font-size="13.00">Date: Aug 13 2014 &#45; 11:35</text>
<text text-anchor="start" x="8" y="-323.6" font-family="Times,serif" font-size="13.00">Migration version: 20140812135244</text>
<text text-anchor="start" x="8" y="-309.6" font-family="Times,serif" font-size="13.00">Generated by RailRoady 1.1.2</text>
<text text-anchor="start" x="8" y="-295.6" font-family="Times,serif" font-size="13.00">http://railroady.prestonlee.com</text>
</g>
<!-- Episode -->
<g id="node2" class="node"><title>Episode</title>
<ellipse fill="none" stroke="black" cx="388" cy="-18" rx="38.4949" ry="18"/>
<text text-anchor="middle" x="388" y="-14.3" font-family="Times,serif" font-size="14.00">Episode</text>
</g>
<!-- Franchise -->
<g id="node3" class="node"><title>Franchise</title>
<ellipse fill="none" stroke="black" cx="185" cy="-234" rx="44.271" ry="18"/>
<text text-anchor="middle" x="185" y="-230.3" font-family="Times,serif" font-size="14.00">Franchise</text>
</g>
<!-- Movie -->
<g id="node4" class="node"><title>Movie</title>
<ellipse fill="none" stroke="black" cx="282" cy="-162" rx="34.1708" ry="18"/>
<text text-anchor="middle" x="282" y="-158.3" font-family="Times,serif" font-size="14.00">Movie</text>
</g>
<!-- Franchise&#45;&gt;Movie -->
<g id="edge2" class="edge"><title>Franchise&#45;&gt;Movie</title>
<path fill="none" stroke="#54d562" d="M212.639,-213.054C225.745,-203.597 241.36,-192.328 254.454,-182.879"/>
<ellipse fill="none" stroke="#54d562" cx="209.291" cy="-215.47" rx="4.00002" ry="4.00002"/>
<polygon fill="#54d562" stroke="#54d562" points="254.533,-182.822 265.275,-180.619 258.587,-179.896 262.642,-176.97 262.642,-176.97 262.642,-176.97 258.587,-179.896 260.009,-173.321 254.533,-182.822 254.533,-182.822"/>
</g>
<!-- Tvseries -->
<g id="node7" class="node"><title>Tvseries</title>
<ellipse fill="none" stroke="black" cx="187" cy="-162" rx="39.9464" ry="18"/>
<text text-anchor="middle" x="187" y="-158.3" font-family="Times,serif" font-size="14.00">Tvseries</text>
</g>
<!-- Franchise&#45;&gt;Tvseries -->
<g id="edge3" class="edge"><title>Franchise&#45;&gt;Tvseries</title>
<path fill="none" stroke="#dd881f" d="M185.725,-207.64C185.884,-202.063 186.053,-196.132 186.215,-190.476"/>
<ellipse fill="none" stroke="#dd881f" cx="185.609" cy="-211.698" rx="4" ry="4"/>
<polygon fill="#dd881f" stroke="#dd881f" points="186.226,-190.1 191.009,-180.233 186.368,-185.102 186.511,-180.104 186.511,-180.104 186.511,-180.104 186.368,-185.102 182.013,-179.976 186.226,-190.1 186.226,-190.1"/>
</g>
<!-- Studio -->
<g id="node5" class="node"><title>Studio</title>
<ellipse fill="none" stroke="black" cx="282" cy="-234" rx="33.1991" ry="18"/>
<text text-anchor="middle" x="282" y="-230.3" font-family="Times,serif" font-size="14.00">Studio</text>
</g>
<!-- Studio&#45;&gt;Movie -->
<g id="edge6" class="edge"><title>Studio&#45;&gt;Movie</title>
<path fill="none" stroke="#5395f7" d="M282,-207.64C282,-202.063 282,-196.132 282,-190.476"/>
<ellipse fill="none" stroke="#5395f7" cx="282" cy="-211.697" rx="4" ry="4"/>
<polygon fill="#5395f7" stroke="#5395f7" points="282,-190.104 286.5,-180.104 282,-185.104 282,-180.104 282,-180.104 282,-180.104 282,-185.104 277.5,-180.104 282,-190.104 282,-190.104"/>
</g>
<!-- Studio&#45;&gt;Tvseries -->
<g id="edge7" class="edge"><title>Studio&#45;&gt;Tvseries</title>
<path fill="none" stroke="#f75ae0" d="M256.006,-213.847C243.385,-204.547 228.196,-193.355 215.285,-183.842"/>
<ellipse fill="none" stroke="#f75ae0" cx="259.555" cy="-216.462" rx="4.00002" ry="4.00002"/>
<polygon fill="#f75ae0" stroke="#f75ae0" points="215.23,-183.801 209.849,-174.247 211.205,-180.835 207.18,-177.869 207.18,-177.869 207.18,-177.869 211.205,-180.835 204.51,-181.492 215.23,-183.801 215.23,-183.801"/>
</g>
<!-- Season -->
<g id="node6" class="node"><title>Season</title>
<ellipse fill="none" stroke="black" cx="356" cy="-90" rx="35.6194" ry="18"/>
<text text-anchor="middle" x="356" y="-86.3" font-family="Times,serif" font-size="14.00">Season</text>
</g>
<!-- Season&#45;&gt;Episode -->
<g id="edge9" class="edge"><title>Season&#45;&gt;Episode</title>
<path fill="none" stroke="#240646" d="M366.943,-65.0625C369.882,-58.6325 373.076,-51.6473 376.066,-45.106"/>
<ellipse fill="none" stroke="#240646" cx="365.247" cy="-68.7731" rx="4.00002" ry="4.00002"/>
<polygon fill="#240646" stroke="#240646" points="376.091,-45.051 384.341,-37.8272 378.17,-40.5036 380.249,-35.9562 380.249,-35.9562 380.249,-35.9562 378.17,-40.5036 376.156,-34.0853 376.091,-45.051 376.091,-45.051"/>
</g>
<!-- Tvseries&#45;&gt;Season -->
<g id="edge11" class="edge"><title>Tvseries&#45;&gt;Season</title>
<path fill="none" stroke="#19402d" d="M223.46,-145.898C251.977,-134.086 291.425,-117.747 319.86,-105.969"/>
<ellipse fill="none" stroke="#19402d" cx="219.364" cy="-147.595" rx="4.00001" ry="4.00001"/>
<polygon fill="#19402d" stroke="#19402d" points="320.184,-105.835 331.144,-106.166 324.803,-103.922 329.422,-102.008 329.422,-102.008 329.422,-102.008 324.803,-103.922 327.7,-97.851 320.184,-105.835 320.184,-105.835"/>
</g>
<!-- ActiveRecord::Base -->
<g id="node8" class="node"><title>ActiveRecord::Base</title>
<ellipse fill="none" stroke="black" cx="313" cy="-327" rx="81.3646" ry="18"/>
<text text-anchor="middle" x="313" y="-323.3" font-family="Times,serif" font-size="14.00">ActiveRecord::Base</text>
</g>
<!-- ActiveRecord::Base&#45;&gt;Episode -->
<g id="edge1" class="edge"><title>ActiveRecord::Base&#45;&gt;Episode</title>
<path fill="none" stroke="black" d="M324.752,-309.006C334.437,-294.409 347.995,-272.532 357,-252 383.827,-190.832 390.343,-174.091 400,-108 403.652,-83.0076 397.876,-54.006 393.143,-36.0776"/>
</g>
<!-- ActiveRecord::Base&#45;&gt;Franchise -->
<g id="edge4" class="edge"><title>ActiveRecord::Base&#45;&gt;Franchise</title>
<path fill="none" stroke="black" d="M290.116,-309.731C266.242,-292.758 229.132,-266.375 205.989,-249.922"/>
</g>
<!-- ActiveRecord::Base&#45;&gt;Movie -->
<g id="edge5" class="edge"><title>ActiveRecord::Base&#45;&gt;Movie</title>
<path fill="none" stroke="black" d="M319.162,-308.697C326.056,-286.568 334.918,-247.357 324,-216 318.904,-201.365 307.897,-187.731 298.429,-177.957"/>
</g>
<!-- ActiveRecord::Base&#45;&gt;Studio -->
<g id="edge8" class="edge"><title>ActiveRecord::Base&#45;&gt;Studio</title>
<path fill="none" stroke="black" d="M307.169,-308.884C301.627,-292.614 293.338,-268.284 287.805,-252.04"/>
</g>
<!-- ActiveRecord::Base&#45;&gt;Season -->
<g id="edge10" class="edge"><title>ActiveRecord::Base&#45;&gt;Season</title>
<path fill="none" stroke="black" d="M320.581,-309.026C326.836,-294.26 335.404,-272.132 340,-252 351.754,-200.517 354.873,-137.821 355.701,-108.147"/>
</g>
<!-- ActiveRecord::Base&#45;&gt;Tvseries -->
<g id="edge12" class="edge"><title>ActiveRecord::Base&#45;&gt;Tvseries</title>
<path fill="none" stroke="black" d="M276.754,-310.68C260.104,-303.69 240.081,-295.351 222,-288 181.708,-271.619 155.452,-287.97 131,-252 122.005,-238.768 124.674,-230.696 131,-216 137.933,-199.893 152.434,-186.392 164.943,-177.048"/>
</g>
</g>
</svg>
